<svg id="btn_akun" xmlns="http://www.w3.org/2000/svg" width="100" height="100"
    viewBox="0 0 100 100">
    <rect id="Rectangle_24" width="100" height="100" rx="25" fill="#fff" />
    <g id="Head_Front_Short_2" transform="translate(30 16.708)">
        <g id="Head" transform="translate(2.154 5.792)">
            <path id="Head-2"
                d="M0,0,6.885,32.092C3.046,36.6.446,42.123.88,48.312c1.252,17.834,26.077,13.91,30.905,4.91S36.041,21.389,29.8,19.781c-2.489-.642-7.791.93-13.188,4.183L20,0Z"
                transform="translate(35 60.833) rotate(180)" fill="#0c71c3" />
        </g>
        <path id="Hair"
            d="M31.805,38.6c2.51-11.168,9.661-18.78,8.569-23.772a8.5,8.5,0,0,0-5.822-6.208S32.107-1.277,18.774.2-2.7,7.215.819,19.4c3.23,0,7.13-1.168,12.522.833,2.567.953,3.671,5.908,3.671,5.908h2.437s3.548-5.881,7-4.322,1.568,7.573,1.568,7.573l1.2,9.207Z"
            transform="translate(0 -0.05)" fill="#ffe1e1" />
    </g>
</svg>
