<?xml version="1.0" encoding="UTF-8" standalone="no"?><!-- Generator: Gravit.io --><svg xmlns="http://www.w3.org/2000/svg" xmlns:xlink="http://www.w3.org/1999/xlink" style="isolation:isolate" viewBox="0 0 100 100" width="100pt" height="100pt"><defs><clipPath id="_clipPath_KvBwgXvdkbT0Z1cjm6ALRwGawOohq4Zg"><rect width="100" height="100"/></clipPath></defs><g clip-path="url(#_clipPath_KvBwgXvdkbT0Z1cjm6ALRwGawOohq4Zg)"><path d=" M 86.749 0.63 C 84.001 0.932 81.94 3.282 81.999 6.046 L 81.999 15.547 C 73.197 7.686 61.801 3.353 50 3.379 C 23.552 3.379 2 24.931 2 51.379 C 2 77.826 23.552 99.378 50 99.378 C 76.447 99.378 97.999 77.826 97.999 51.379 C 98.032 49.455 97.019 47.665 95.354 46.701 C 93.696 45.722 91.636 45.722 89.978 46.701 C 88.313 47.665 87.3 49.455 87.333 51.379 C 87.333 72.066 70.687 88.712 50 88.712 C 29.312 88.712 12.667 72.066 12.667 51.379 C 12.667 30.691 29.312 14.046 50 14.046 C 60.176 14.046 69.354 18.139 76.082 24.712 L 63.333 24.712 C 61.409 24.68 59.619 25.692 58.656 27.357 C 57.676 29.016 57.676 31.075 58.656 32.733 C 59.619 34.399 61.409 35.411 63.333 35.379 L 92.666 35.379 L 92.666 6.046 C 92.689 4.602 92.125 3.212 91.105 2.191 C 90.084 1.17 88.693 0.607 87.25 0.63 C 87.083 0.619 86.916 0.619 86.749 0.63 Z " fill="rgb(0,0,0)"/></g></svg>