<svg id="ico_out" xmlns="http://www.w3.org/2000/svg" width="24.435" height="20" viewBox="0 0 24.435 20">
  <g id="ico_out-2" transform="translate(-383.353 -96.52)">
    <path id="Path_386" d="M427.438,115.935h-4.595a.593.593,0,0,1-.593-.593v-6.729a.593.593,0,0,1,1.186,0v6.136h4a.593.593,0,0,1,0,1.186Z" transform="translate(-29.673 -8.773)" fill="#e10000"/>
    <path id="Path_387" d="M399.052,113.116a2.853,2.853,0,0,1-.361-.5,8.1,8.1,0,1,1,0-12.187,2.813,2.813,0,0,1,1.444-1.247,10,10,0,1,0,0,14.68A2.829,2.829,0,0,1,399.052,113.116Z" transform="translate(0 0)" fill="#e10000"/>
    <path id="Path_389" d="M453.887,125.137a1.423,1.423,0,0,1-.953-2.479l4.029-3.633-4.029-3.633a1.423,1.423,0,1,1,1.906-2.113l5.2,4.69a1.423,1.423,0,0,1,0,2.113l-5.2,4.69A1.417,1.417,0,0,1,453.887,125.137Z" transform="translate(-52.722 -12.504)" fill="#e10000"/>
  </g>
</svg>
