<svg id="ico_in" xmlns="http://www.w3.org/2000/svg" width="20.475" height="20.475" viewBox="0 0 20.475 20.475">
  <g id="ico_in-2" transform="translate(-4.369 18.052) rotate(-90)">
    <g id="ico_in-3" transform="translate(118.646 -157.799) rotate(90)">
      <path id="Path_390" d="M170.615,118.781a2.729,2.729,0,0,1-.382-.334,7.92,7.92,0,1,1,10.092-7.616c0,.014,0,.028,0,.043a2.665,2.665,0,0,1,2.295.626c.014-.221.024-.444.024-.668a10.26,10.26,0,1,0-8.961,10.155Z" transform="translate(0)" fill="lime"/>
      <path id="Path_391" d="M203.3,158.032a1.638,1.638,0,0,1-.962-.311l-3.378-2.429a1.649,1.649,0,1,1,1.925-2.677l2.214,1.593,4.283-4.476a1.648,1.648,0,0,1,2.331-.052,1.651,1.651,0,0,1,.051,2.331l-5.274,5.511A1.657,1.657,0,0,1,203.3,158.032Z" transform="translate(-27.739 -37.358)" fill="lime"/>
      <path id="Path_392" d="M208.134,121.831h-4.491a.58.58,0,0,1-.579-.579v-6.577a.579.579,0,0,1,1.159,0v6h3.911a.579.579,0,0,1,0,1.159Z" transform="translate(-31.417 -10.372)" fill="lime"/>
    </g>
  </g>
</svg>
