<?xml version="1.0" encoding="utf-8"?>
<!-- Generator: Adobe Illustrator 16.0.0, SVG Export Plug-In . SVG Version: 6.00 Build 0)  -->
<!DOCTYPE svg PUBLIC "-//W3C//DTD SVG 1.1//EN" "http://www.w3.org/Graphics/SVG/1.1/DTD/svg11.dtd">
<svg version="1.1" id="Layer_1" xmlns="http://www.w3.org/2000/svg" xmlns:xlink="http://www.w3.org/1999/xlink" x="0px" y="0px"
	 width="196.168px" height="141.119px" viewBox="-89.683 -64.397 196.168 141.119"
	 enable-background="new -89.683 -64.397 196.168 141.119" xml:space="preserve">
<g>
	<g>
		<path fill="#5D90F6" d="M-51.66-28.481c0-4.532,1.081-8.795,2.884-12.646h-21.737c-5.824,0-10.545,4.715-10.545,10.543
			c0,5.829,4.721,10.545,10.545,10.545h20.208C-51.103-22.737-51.66-25.527-51.66-28.481z"/>
		<path fill="#5D90F6" d="M87.319-41.127H5.522C7.319-37.277,8.4-33.013,8.4-28.481c0,2.954-0.562,5.745-1.354,8.443h80.273
			c5.823,0,10.543-4.716,10.543-10.545C97.862-36.412,93.142-41.127,87.319-41.127z"/>
	</g>
	<g>
		<path fill="#5D90F6" d="M-21.627,1.544c-16.558,0-30.032-13.469-30.032-30.025c0-16.559,13.475-30.028,30.032-30.028
			S8.4-45.041,8.4-28.481C8.4-11.925-5.07,1.544-21.627,1.544z M-21.627-37.42c-4.933,0-8.943,4.005-8.943,8.939
			c0,4.932,4.011,8.937,8.943,8.937c4.928,0,8.938-4.005,8.938-8.937C-12.689-33.415-16.7-37.42-21.627-37.42z"/>
	</g>
	<g>
		<path fill="#5D90F6" d="M-0.183,40.159c0-2.956,0.557-5.744,1.354-8.442h-71.684c-5.824,0-10.545,4.715-10.545,10.544
			c0,5.828,4.721,10.543,10.545,10.543H2.69C0.892,48.955-0.183,44.691-0.183,40.159z"/>
		<path fill="#5D90F6" d="M87.319,31.716H58.531c0.794,2.698,1.355,5.486,1.355,8.442c0,4.532-1.075,8.796-2.873,12.645h30.306
			c5.823,0,10.543-4.715,10.543-10.543C97.862,36.431,93.142,31.716,87.319,31.716z"/>
	</g>
	<g>
		<path fill="#5D90F6" d="M29.848,70.207c-16.557,0-30.031-13.479-30.031-30.048c0-16.558,13.475-30.026,30.031-30.026
			c16.564,0,30.038,13.469,30.038,30.026C59.886,56.727,46.413,70.207,29.848,70.207z M29.848,31.222
			c-4.933,0-8.943,4.004-8.943,8.937c0,4.944,4.011,8.961,8.943,8.961s8.948-4.017,8.948-8.961
			C38.796,35.226,34.781,31.222,29.848,31.222z"/>
	</g>
</g>
</svg>
