<svg xmlns="http://www.w3.org/2000/svg" width="42.999" height="43" viewBox="0 0 42.999 43">
  <g id="ico_scan" transform="translate(0.33 0.33)">
    <path id="Subtraction_3" data-name="Subtraction 3" d="M37,43H29.025V38.835h6.809a3,3,0,0,0,3-3V28.906H43V37A6.007,6.007,0,0,1,37,43ZM13.975,43H6a6.007,6.007,0,0,1-6-6V28.906H4.165v6.928a3,3,0,0,0,3,3h6.809V43ZM43,13.856H38.834V7.166a3,3,0,0,0-3-3H29.025V0H37a6.007,6.007,0,0,1,6,6v7.854Zm-38.834,0H0V6A6.007,6.007,0,0,1,6,0h7.975V4.165H7.166a3,3,0,0,0-3,3v6.689Z" transform="translate(-0.33 -0.33)" fill="#0c71c3"/>
    <rect id="Rectangle_21" data-name="Rectangle 21" width="18" height="18" rx="6" transform="translate(12.67 12.67)" fill="#0c71c3"/>
    <rect id="Rectangle_23" data-name="Rectangle 23" width="32" height="2" rx="1" transform="translate(5.67 20.67)" fill="#0c71c3"/>
  </g>
</svg>
