<svg xmlns="http://www.w3.org/2000/svg" width="218.369" height="158.143" viewBox="0 0 218.369 158.143">
  <g id="img_logo" transform="translate(-388.319 -188.761)">
    <path id="Path_1" data-name="Path 1" d="M434.022,259.9q.033-.684.066-1.366c7.019-.768,14.084-.614,21.126-1.091,12.817-.869,25.655.43,38.487.586a9.95,9.95,0,0,0,2.831-.192,4.474,4.474,0,0,0,3.115-4.012c.042-1.345-2.091-.672-3.222-.665-9.3.063-18.606.046-27.911.321-9.832.291-19.68.054-29.521.1-1.083.006-2.366-.525-3.215.7a3.976,3.976,0,0,1-1.237-3.358,88.362,88.362,0,0,0-.095-9.407c-.237-2.753.871-3.511,3.361-3.207a24.266,24.266,0,0,0,3.131,0c2.549.606,4.185-.391,4.226-3,.037-2.312-1.864-1.094-3-1.217-7.6-.037-7.6-.037-7.6-7.812,0-7.4,0-7.393,7.333-7.465,1.8-.018,3.593-.083,5.389-.127,7.163,1.177,14.127.785,20.728-3.083h-19.99c-3.374.036-6.754-.047-10.119.144-2.576.146-3.943-.357-3.608-3.406a39.913,39.913,0,0,0-.031-8.217c-.309-3.159.949-3.87,3.916-3.759,5.052.19,10.12-.089,15.181-.17,1.058.04,2.116.116,3.173.115q43.24-.043,86.481-.1c17.486-.023,34.973-.011,52.459-.13,2.568-.017,3.637.62,3.415,3.363a71.216,71.216,0,0,0-.013,8.9c.085,1.89-.48,2.646-2.474,2.656-5.713.025-11.425.218-17.138.377a5.874,5.874,0,0,0-3.737.78c3.629.689,6.094,2.614,9.312,2.415,3.9-.242,7.833.261,11.738-.3,1.488-.214,2.693.289,2.488,1.981a48.423,48.423,0,0,0,.186,10.128c.184,2.1-.505,3.121-2.847,3.005-3.276-.16-6.57.055-9.853-.032-2.352-.062-2.984,1.591-3.1,3.259-.155,2.352,1.88,1.065,2.792,1.118,3.274.191,6.569.13,9.851.027,2.208-.07,3.361.323,2.943,3.029a27.848,27.848,0,0,0,.138,8.545c.379,2.418-.345,3.722-3.217,3.661-7.1-.152-14.21.205-21.3-.09-4.035-.168-6.554,1.954-9.42,4.192a3.92,3.92,0,0,0,2.71.416c9.221.012,18.441-.013,27.661.005,1.312,0,2.857-.431,3.539,1.328l-.115.2.119.2a6.232,6.232,0,0,0-.04,3.387c-.553,2.24-1.514,4.492.187,6.669-.28,1.244,1,3.106-1.394,3.515l-1.113.173c-8.3-.259-16.592-.623-24.882.173l-7.366.031-7.3,0c-11.954-1.043-23.929-.165-35.893-.408-1.431-.029-1.878.976-1.9,2.048-.027,1.523,1.3,1.093,2.14,1.092q24.961-.019,49.921-.109a5.561,5.561,0,0,0,1.224-.282l8.111-.073c2.986.707,5.989.389,8.99.144a4.334,4.334,0,0,0,2.548-.036,8.972,8.972,0,0,0,4.9-.183c1.529.146,2.1.893,2.046,2.507-.125,3.49-.146,6.994.015,10.482.1,2.076-.781,2.523-2.609,2.45a44.089,44.089,0,0,0-4.727.286c-2.742-1.157-5.595-.406-8.39-.405-1.483,0-2.145,1.478-2.308,2.664-.245,1.775,1.535,1.188,2.284,1.214,2.5.089,5.019-.153,7.53-.269,2.655.482,6.259-1.129,7.778.873,1.285,1.7.408,5.059.422,7.684.036,6.8.022,6.792-6.684,6.793-2.209,0-4.418.044-6.627.067-4.839-.027-9.682.053-14.516-.122-2.808-.1-4.226,1.511-5.919,3.715h19.3c3.92.036,7.842.164,11.758.067,1.96-.049,2.892.329,2.765,2.583a99.317,99.317,0,0,0,.01,10.17c.09,1.961-.529,2.547-2.494,2.521-5.72-.073-11.443.063-17.165.116-1.163-.04-2.327-.124-3.49-.113-16.729.17-33.461-.366-50.184.682-4.839.3-9.679-.718-14.568-.673-18.529.168-37.058.106-55.587.186q-9.151.04-18.3.376c-2.175.076-3.092-.6-2.983-2.876.151-3.172.116-6.359.027-9.536-.056-2,.586-2.9,2.737-2.8,3.28.143,6.57.058,9.854.024,1.436-.015,3.219.327,3.124-2.025-.084-2.06-1.643-1.824-3.025-1.822-3.18.006-6.369-.147-9.536.056-2.611.167-3.346-.879-3.21-3.322.17-3.064.155-6.148.03-9.216-.083-2.037.516-2.841,2.684-2.719,3.169.178,6.356.059,9.535.012,1.493-.022,3.5.576,3.469-1.984-.029-2.394-1.958-1.747-3.312-1.773-3.391-.066-6.784-.081-10.174,0-1.651.037-2.254-.587-2.222-2.233.078-4.132.035-8.266.04-12.4l.536-.349a86.665,86.665,0,0,0,12.145-.1c1.031.181,2.223.822,2.591-.9-.008-.427-.014-.854-.022-1.28-.473-1.706-1.5-1.28-2.58-.672l-10.19.053c-.188-.3-.37-.326-.545.01l-.7.057-.63-.062-.015-.013-.614-.651C434.338,268.447,435.348,264.117,434.022,259.9Zm123.345-43.589c1.489.558,2.667-.369,3.964-.924-1.324-.179-2.638-.927-3.913.174a11.186,11.186,0,0,0-1.261-.138q-35.914.041-71.83.109c-.765,0-1.705-.272-2.021.586,3.925,3.164,8.52,2.625,13.042,2.61,13.984-.046,27.971-.182,41.953-.013A79.541,79.541,0,0,0,557.367,216.312Zm16.769,80.711c-1.841-.153-2.493.988-3.372,1.628-7.2,5.238-14.377,10.551-22.78,13.722-13.535,5.108-27.626.106-32.858-11.569-3.169-7.072-3.083-14.477-1.19-21.787,5.861-22.631,20.193-38.463,40.5-49.184a29.023,29.023,0,0,1,17.594-2.908,4.609,4.609,0,0,1,4.1,3.039c.747,2.021-.179,3.5-1.522,4.815a20.362,20.362,0,0,1-9.147,4.893c-5.383,1.461-8.153,5.433-10.243,10.08-1.306,2.9.127,4.822,3.321,4.61a8.175,8.175,0,0,0,3.352-.853c9.371-5.217,16.022-12.809,19.029-23.164,1.722-5.93-1.053-9.547-7.19-10.486-7.272-1.113-14.406-.125-21.366,1.8-30.37,8.4-49.643,28.788-60.762,57.45-3.883,10.011-3.627,20.4,2.82,29.488,9.357,13.193,22.857,17.819,38.4,15.913,12.65-1.55,22.691-8.912,32.108-16.98A53,53,0,0,0,574.136,297.023Zm-121.05-5.213h.132c0,9.745.041,19.492-.034,29.236-.015,1.975.45,2.881,2.637,2.839,6.671-.128,13.346-.132,20.02-.071,1.716.015,2.138-.624,2.133-2.228q-.1-29.714-.076-59.427c0-1.875-.69-2.294-2.429-2.266-6.461.1-12.927.184-19.384.014-2.644-.07-3.089.914-3.055,3.3C453.166,272.741,453.086,282.276,453.086,291.81ZM516.681,202.8v.571q-36.716,0-73.432,0c-6.052,0-5.895.024-6.076,6.193-.081,2.79.931,3.306,3.446,3.269,12.607-.185,25.216-.235,37.824-.275q55.949-.174,111.9-.306c5.811-.017,5.591-.038,5.873-5.771.157-3.211-.923-3.764-3.88-3.751C567.117,202.853,541.9,202.8,516.681,202.8Zm40.731,75.654v.191q-16.531,0-33.063,0c-6.435,0-6.326.009-7.183,6.6-.291,2.228.065,2.918,2.443,2.9q27.5-.184,55-.082c1.787.007,3.437-1.628,4.719-1.011,3.519,1.695,7.091.729,10.609.84,6.392.2,6.285.049,6.385-6.479.036-2.359-.562-3.042-2.984-3.016C581.362,278.527,569.387,278.455,557.412,278.455Zm-97.738-30.926c9.48-1.06,18.143-5.45,23.966-14.586,1.862-2.922,3.006-6.258,1.041-9.584-1.95-3.3-5.43-4.082-8.869-3.876A31.193,31.193,0,0,0,450.8,233.622c-2.009,2.943-3.294,6.343-1.35,9.849C451.414,247.008,454.99,247.34,459.674,247.529Zm99.115,22.591v-.183q15.561,0,31.122,0c6.432,0,6.3-.012,6.4-6.542.037-2.448-.719-2.951-3.036-2.935-20.006.135-40.018.4-60.017.019-5.685-.108-8.725,1.71-10.765,6.758-1.083,2.681-.455,2.938,2,2.92C535.924,270.074,547.356,270.12,558.788,270.12ZM546,325.7q22.026,0,44.053,0c6.453,0,6.368-.02,6.334-6.6-.01-2.018-.492-2.756-2.622-2.729-10.257.134-20.516.134-30.775.146a5.766,5.766,0,0,0-3.327.82C555.209,320.307,550.67,323.139,546,325.7Zm-8.676-104.163c-1.26,0-2.52,0-3.78,0-13.336.046-26.672.153-40.007.09-2.845-.013-5.116-.207-3.64,3.793a6.77,6.77,0,0,1-.037,3.46c-.369,1.838.391,2.117,2.018,2.1,9.63-.1,19.263-.111,28.893-.152a4.638,4.638,0,0,0,2.75-.568C527.944,227.228,532.664,224.7,537.321,221.533Zm27.646,76.006c-5.248,0-9.853-.011-14.459,0-9.834.029-19.668.046-29.5.155-.726.008-2.706-.842-2.079,1.076,1.142,3.5,3.32,7.472,6.762,7.854,8.239.915,16.783,1.5,24.874-.278C555.693,305.219,560.085,301.232,564.968,297.539Zm-96.6-46.793c1.494-.089,2.989-.249,4.484-.257,8.982-.042,17.964-.046,26.945-.073,1.143,0,2.375.243,3.263-.778,2.384-2.743,4.746-5.5,7.454-8.649-9.171,0-17.8.006-26.42-.008a4.113,4.113,0,0,0-2.707,1.471A56.982,56.982,0,0,1,468.368,250.745ZM573.243,291.2c-1.242-.946-2.332-.581-3.335-.581-11.334-.01-22.668.025-34,.045q-8.262.014-16.524.019c-1.139,0-2.163.066-2.125,1.622.034,1.38.221,2.591,2,2.6.424,0,.847.013,1.271.012,15.042-.019,30.082-.069,45.123-.035A9.334,9.334,0,0,0,573.243,291.2Zm-1.284,15.677c7.884,0,15.25-.048,22.613.029,2.138.024,1.954-1.446,1.668-2.55-.589-2.278,1.794-5.22-1.47-6.854-.424-.212-1.043-.029-1.572-.029a54.764,54.764,0,0,1-7.609-.07c-4.631-.658-7.876.848-10.058,5.025C574.768,303.893,573.447,305.062,571.959,306.88ZM508.29,326.122c-4.254-2.57-8.331-4.959-11.876-8.192a4.169,4.169,0,0,0-2.821-1.278c-3.591,0-7.182.036-10.772-.021-1.385-.023-2.039.571-1.784,1.875.49,2.513-1.261,5.338,1.055,7.576.113.109.408.038.62.038ZM574.333,250c5.439,0,10.289-.008,15.138,0,7.047.015,7,.022,6.758-7.076-.053-1.539-.3-2.286-2.093-2.219-3.691.14-7.391.039-11.087.051a2.754,2.754,0,0,0-2.53.966C578.61,244.338,576.648,246.912,574.333,250Zm-55.711-16.536c-9.325.732-18.182.4-27.029.316-3.344-.033-4.682,1.516-5.775,4.512,7.814,0,15.39-.228,22.943.091C512.91,238.559,515.852,237.1,518.622,233.466Zm-62.6-11.675c-5.271,0-9.76-.012-14.249,0s-4.538.027-4.424,4.55c.039,1.54-.516,3.234.513,4.6.67.888,9,.4,9.731-.611A46.546,46.546,0,0,1,456.021,221.791Zm99.266,19.438q-13.673-2.365-20.1,9.046c4.561,0,9.069-.024,13.577.017a2,2,0,0,0,2.166-1.443C551.855,246.035,553.7,243.734,555.287,241.228ZM443.948,288.464a30.406,30.406,0,0,1,3.785.029c2.247.284,2.612-.814,2.56-2.753-.176-6.694-.123-6.7-6.881-6.712a28.2,28.2,0,0,1-3.155-.021c-2.146-.248-2.891.485-2.864,2.763C437.474,288.478,437.369,288.479,443.948,288.464Zm.069-18.195c1.478,0,2.956.012,4.434-.006.709-.009,1.651.182,1.663-.919.027-2.426-.024-4.854-.1-7.279-.038-1.194-.957-1.179-1.833-1.178-2.85,0-5.7.053-8.55-.034-1.649-.05-2.133.588-2.213,2.219C437.063,270.331,437.01,270.329,444.017,270.269Zm-.182,55.92c6.835-.013,6.775-.011,6.584-6.877-.052-1.875-.578-2.687-2.555-2.576a51.344,51.344,0,0,1-7.276,0c-2.491-.215-2.965.82-2.937,3.085C437.73,326.2,437.632,326.2,443.836,326.189Zm51.534-65.457c-3.889,0-7.387.218-10.846-.064-3.123-.254-3.953.878-3.875,3.873.148,5.655-.013,5.659,5.607,5.659.845,0,1.695-.052,2.533.02a2.286,2.286,0,0,0,2.475-1.495C492.508,266.182,493.845,263.684,495.369,260.732Zm-51.488,37.3c-1.474,0-2.948-.015-4.422.006-.85.012-1.8.006-1.805,1.216-.011,2.316-.04,4.636.1,6.945.082,1.4,1.333,1.081,2.209,1.084,2.631.006,5.269-.163,7.9-.061,1.887.073,2.527-.508,2.549-2.483C450.478,298,450.559,298.006,443.881,298.032Zm96.93-40.05v-.029c2.645,0,5.293.06,7.935-.025,1.3-.043,3.286.748,3.731-.562.419-1.233-1.37-2.415-2.152-3.64-.616-.966-1.688-.707-2.616-.708-4.233-.008-8.469.121-12.7-.029a5.489,5.489,0,0,0-5.107,2.522c-.409.585-1.236,1.042-.9,1.875.355.877,1.263.581,1.962.585C534.25,257.994,537.531,257.982,540.811,257.982Zm43.43-36.737c.445,1.556.825,2.853,1.188,4.156.471,1.694-.87,4.139.621,5,1.434.833,3.694.25,5.591.278.951.015,1.9-.044,2.85.016,2.415.153,1.989-1.765,1.637-2.8-.744-2.187,2.294-5.729-1.69-6.522C591.208,220.732,587.75,221.244,584.24,221.244Zm-133.445,29.3c-3.509-2.233-5.544-4.441-6.229-7.624-.3-1.376-1.015-1.783-2.423-1.82-4.839-.127-4.839-.194-4.811,4.664a27.576,27.576,0,0,1,.025,2.854c-.163,1.624.649,1.969,2.068,1.945C442.9,250.508,446.378,250.548,450.795,250.548ZM569.125,233.6c-10.852-.894-16.25.444-19.777,4.524C556.151,239.141,562.311,236.978,569.125,233.6Zm-88.167,69.014-.113.008c.118,1.352-.27,3.369.457,3.923,1.709,1.3,4.17.9,6.069.345,1.366-.4-.155-1.88-.394-2.861-.4-1.64-1.039-3.227-1.371-4.878-.392-1.95-1.819-1.322-2.992-1.415-1.527-.121-1.713.825-1.662,2.021C480.99,300.713,480.958,301.667,480.958,302.619Zm5.554,11.368V314a6.166,6.166,0,0,0,1.568-.022c1.232-.336,3.487.987,3.513-1.074a3.434,3.434,0,0,0-3.693-3.15c-1.784.018-3.568.029-5.351.015a1.688,1.688,0,0,0-1.965,1.876c-.029,1.314.279,2.316,1.837,2.339C483.784,314,485.147,313.987,486.511,313.987Zm-2.66-34.935c-2.928-.773-3.385.756-2.992,3.233a16.934,16.934,0,0,1,.036,3.473c-.07,1.394.046,2.46,1.86,2.6,1.72.131,2.546-.45,2.715-2.187a17.676,17.676,0,0,1,.782-4.333C487.167,279.341,486.424,278.5,483.851,279.052Zm.8-2.633c.808-.155,1.744-.277,2.647-.522a2.242,2.242,0,0,0,1.674-2.384c-.116-1.131-1.349-.635-2.107-.663-1.569-.057-3.142-.024-4.712.011a1.492,1.492,0,0,0-1.6,1.561c-.08,1.078.49,1.485,1.482,1.58C482.867,276.084,483.688,276.262,484.653,276.419Zm-1.672,18.568c1.211.184,1.976-.26,2-1.854.032-1.821-1.015-1.995-2.429-2.036-1.513-.045-2.027.6-2.027,2.065C480.527,294.827,481.5,295.052,482.98,294.987Z" transform="translate(-16.632 -4.122)" fill="#74528c" fill-rule="evenodd"/>
    <path id="Path_2" data-name="Path 2" d="M417.39,294.122c1.326,4.216.316,8.546.626,12.811l.614.651.015.013c.178.338.384.4.63.063l.7-.057q.273,0,.546-.01l10.191-.053c.664.978,1.684.586,2.579.672.008.427.014.854.022,1.28-.924.131-2.089-.435-2.591.9a86.843,86.843,0,0,1-12.144.106c-.376-.19-.485.035-.536.348-.005,4.133.038,8.267-.04,12.4-.031,1.646.572,2.27,2.223,2.233,3.39-.077,6.783-.062,10.174,0,1.354.026,3.284-.62,3.312,1.773.031,2.56-1.976,1.962-3.469,1.984-3.179.047-6.366.166-9.535-.012-2.168-.121-2.766.683-2.684,2.719.125,3.067.141,6.152-.03,9.216-.137,2.443.6,3.489,3.21,3.322,3.166-.2,6.356-.05,9.536-.056,1.382,0,2.941-.238,3.025,1.822.095,2.352-1.688,2.009-3.124,2.025-3.285.034-6.575.119-9.854-.024-2.151-.094-2.793.8-2.737,2.8.088,3.177.123,6.363-.027,9.536-.109,2.281.808,2.953,2.983,2.876q9.146-.321,18.3-.376c18.529-.08,37.058-.018,55.587-.186,4.889-.045,9.729.976,14.568.673,16.723-1.048,33.456-.511,50.184-.682,1.163-.011,2.327.073,3.49.113q-.44,1.809-.878,3.619c-1.163.039-2.326.108-3.49.113-41.414.165-82.831-.2-124.243.513-4.449.076-8.908.189-13.346-.034-2.657-.134-3.308.874-3.134,3.283.175,2.425.047,4.871.047,7.307,0,4.267,0,4.287,4.262,4.283q58-.047,116-.1c6.138,0,12.274.128,18.411.2.027,2.591-1.824,2.394-3.551,2.4q-20.5.063-41,.133-60.541.234-121.082.52c-2.578.014-3.36-.4-2.458-3.149q13.217-40.366,26.251-80.791C415.712,298.9,416.568,296.516,417.39,294.122Z" transform="translate(0 -38.342)" fill="#eb343a" fill-rule="evenodd"/>
    <path id="Path_3" data-name="Path 3" d="M610.192,258.512a6.243,6.243,0,0,1,.038-3.385.3.3,0,0,0,0-.4c-.682-1.759-2.228-1.325-3.539-1.328-9.22-.018-18.44.007-27.661-.005a3.92,3.92,0,0,1-2.71-.416c2.866-2.238,5.385-4.36,9.42-4.192,7.087.3,14.2-.062,21.3.09,2.871.061,3.6-1.243,3.217-3.661a27.849,27.849,0,0,1-.138-8.545c.419-2.706-.734-3.1-2.943-3.029-3.282.1-6.577.163-9.851-.027-.912-.053-2.947,1.234-2.792-1.118.111-1.667.744-3.321,3.1-3.259,3.283.087,6.576-.128,9.853.032,2.342.116,3.031-.909,2.847-3.005a48.415,48.415,0,0,1-.186-10.128c.205-1.691-1-2.2-2.488-1.981-3.9.564-7.833.06-11.738.3-3.218.2-5.683-1.726-9.312-2.415a5.874,5.874,0,0,1,3.737-.78c5.713-.158,11.425-.351,17.138-.377,1.994-.01,2.558-.765,2.474-2.656a71.216,71.216,0,0,1,.013-8.9c.221-2.743-.847-3.38-3.415-3.363-17.486.119-34.973.107-52.459.13q-43.241.058-86.481.1c-1.057,0-2.115-.074-3.173-.115,1.7-6.749,1.7-6.714,8.443-6.736q79.347-.26,158.694-.585c2.62-.013,3.345.49,2.453,3.2q-9.937,30.14-19.646,60.355c-.667,2.065-2.227,3.819-2.126,6.143-.607.426-.5,1.1-.59,1.706l-.023.118Q610.916,259.4,610.192,258.512Z" transform="translate(-27.699)" fill="#eb343a" fill-rule="evenodd"/>
    <path id="Path_4" data-name="Path 4" d="M573.76,423.653c-6.137-.069-12.273-.2-18.411-.2q-58,.026-116,.1c-4.266,0-4.264-.017-4.262-4.283,0-2.436.128-4.882-.047-7.307-.174-2.409.477-3.416,3.134-3.283,4.438.223,8.9.111,13.346.034,41.412-.712,82.829-.349,124.243-.513,1.164,0,2.327-.073,3.49-.113,5.825.011,11.655.165,17.473-.033,2.611-.089,3.242.791,3.08,3.221a69.509,69.509,0,0,0,.008,9.209c.154,2.325-.724,2.808-2.883,2.776-6.565-.1-13.133.018-19.7.088C576.069,423.36,574.915,423.547,573.76,423.653ZM517.3,420.867v-.559q36.409,0,72.817-.005c6.886,0,6.814-.032,6.724-6.884-.025-1.907-.523-2.684-2.511-2.576-3.065.167-6.142.165-9.215.175q-70.591.211-141.183.4c-5.832.016-5.672.007-5.905,5.8-.115,2.861.6,3.736,3.6,3.72C466.851,420.812,492.076,420.867,517.3,420.867Z" transform="translate(-16.991 -79.802)" fill="#74528c" fill-rule="evenodd"/>
    <path id="Path_5" data-name="Path 5" d="M435.816,284.552c.849-1.228,2.132-.7,3.215-.7,9.842-.048,19.689.189,29.521-.1,9.305-.275,18.608-.258,27.911-.321,1.13-.007,3.264-.679,3.222.665a4.474,4.474,0,0,1-3.115,4.012,9.95,9.95,0,0,1-2.831.192c-12.832-.156-25.671-1.455-38.487-.586-7.042.477-14.107.323-21.126,1.091Q434.971,286.674,435.816,284.552Z" transform="translate(-16.67 -34.386)" fill="#eb343a" fill-rule="evenodd"/>
    <path id="Path_6" data-name="Path 6" d="M660.17,375.992h-19.3c1.693-2.2,3.111-3.816,5.919-3.715,4.834.175,9.677.095,14.516.122Q660.739,374.2,660.17,375.992Z" transform="translate(-91.908 -66.782)" fill="#eb343a" fill-rule="evenodd"/>
    <path id="Path_7" data-name="Path 7" d="M455.618,224.494h19.99c-6.6,3.868-13.565,4.261-20.728,3.083Z" transform="translate(-24.222 -13.004)" fill="#de343e" fill-rule="evenodd"/>
    <path id="Path_8" data-name="Path 8" d="M675.409,346.033c-2.511.116-5.026.358-7.53.269-.749-.027-2.528.56-2.284-1.214.163-1.186.826-2.664,2.308-2.664,2.795,0,5.648-.752,8.39.405Q675.853,344.43,675.409,346.033Z" transform="translate(-100.896 -55.832)" fill="#de343e" fill-rule="evenodd"/>
    <path id="Path_9" data-name="Path 9" d="M446.125,253.438c1.132.123,3.033-1.094,3,1.217-.04,2.6-1.676,3.6-4.226,3Q445.511,255.544,446.125,253.438Z" transform="translate(-20.589 -23.46)" fill="#de343e" fill-rule="evenodd"/>
    <path id="Path_10" data-name="Path 10" d="M693.138,298.418q.724.884,1.448,1.766l-1.261,4.906C691.624,302.91,692.584,300.658,693.138,298.418Z" transform="translate(-110.645 -39.906)" fill="#de343e" fill-rule="evenodd"/>
    <path id="Path_11" data-name="Path 11" d="M687.916,317a8.99,8.99,0,0,1-4.9.185c.909-1.812,3.638-.529,4.4-2.588l1.111-.172Q688.223,315.716,687.916,317Z" transform="translate(-107.243 -45.732)" fill="#de343e" fill-rule="evenodd"/>
    <path id="Path_12" data-name="Path 12" d="M695.894,300.032c.095-.6-.017-1.28.59-1.706A2.2,2.2,0,0,1,695.894,300.032Z" transform="translate(-111.93 -39.872)" fill="#de343e" fill-rule="evenodd"/>
    <path id="Path_13" data-name="Path 13" d="M605.616,308.067a53,53,0,0,1-9.209,10.506c-9.417,8.068-19.458,15.43-32.108,16.98-15.548,1.906-29.047-2.72-38.4-15.913-6.447-9.09-6.7-19.476-2.82-29.488,11.119-28.662,30.392-49.051,60.762-57.45,6.959-1.925,14.094-2.913,21.366-1.8,6.137.939,8.912,4.556,7.19,10.486-3.006,10.355-9.658,17.948-19.029,23.164a8.175,8.175,0,0,1-3.352.853c-3.194.212-4.628-1.707-3.321-4.61,2.09-4.647,4.86-8.619,10.243-10.08a20.362,20.362,0,0,0,9.147-4.893c1.343-1.315,2.27-2.793,1.522-4.815a4.609,4.609,0,0,0-4.1-3.039,29.023,29.023,0,0,0-17.594,2.908c-20.3,10.721-34.635,26.553-40.5,49.184-1.893,7.31-1.979,14.715,1.19,21.787,5.232,11.675,19.322,16.677,32.858,11.569,8.4-3.172,15.582-8.485,22.78-13.722C603.122,309.056,603.775,307.915,605.616,308.067Z" transform="translate(-48.111 -15.166)" fill="#fbfbfb" fill-rule="evenodd"/>
    <path id="Path_14" data-name="Path 14" d="M463.96,326.025c0-9.534.08-19.069-.056-28.6-.034-2.389.412-3.373,3.055-3.3,6.457.17,12.923.088,19.384-.014,1.739-.028,2.431.391,2.429,2.266q-.041,29.713.076,59.427c.005,1.6-.418,2.243-2.133,2.228-6.674-.061-13.349-.058-20.02.071-2.187.042-2.651-.864-2.637-2.839.076-9.744.034-19.491.034-29.236Z" transform="translate(-27.506 -38.336)" fill="#fefefe" fill-rule="evenodd"/>
    <path id="Path_15" data-name="Path 15" d="M518.481,204.315c25.218,0,50.436.052,75.653-.068,2.957-.013,4.037.54,3.88,3.751-.282,5.734-.062,5.755-5.873,5.771q-55.948.154-111.9.306c-12.609.04-25.217.09-37.824.275-2.516.037-3.528-.479-3.446-3.269.181-6.169.023-6.191,6.076-6.193q36.716-.011,73.432,0Z" transform="translate(-18.432 -5.636)" fill="#fafafa" fill-rule="evenodd"/>
    <path id="Path_16" data-name="Path 16" d="M604.929,323.255c11.975,0,23.95.072,35.924-.06,2.422-.027,3.02.657,2.984,3.016-.1,6.528.007,6.681-6.385,6.479-3.518-.111-7.089.854-10.609-.84-1.282-.617-2.932,1.018-4.719,1.011q-27.5-.114-55,.082c-2.378.017-2.733-.674-2.443-2.9.857-6.587.748-6.6,7.183-6.6q16.532,0,33.063,0Z" transform="translate(-64.149 -48.922)" fill="#fafafa" fill-rule="evenodd"/>
    <path id="Path_17" data-name="Path 17" d="M467.952,258.608c-4.684-.188-8.26-.521-10.219-4.058-1.943-3.506-.658-6.906,1.35-9.849a31.193,31.193,0,0,1,25.008-14.139c3.439-.206,6.919.573,8.869,3.876,1.965,3.326.821,6.662-1.041,9.584C486.1,253.158,477.432,257.548,467.952,258.608Z" transform="translate(-24.911 -15.201)" fill="#fbfbfb" fill-rule="evenodd"/>
    <path id="Path_18" data-name="Path 18" d="M609.11,304.66c-11.432,0-22.864-.046-34.3.037-2.457.018-3.085-.239-2-2.92,2.04-5.048,5.08-6.867,10.765-6.758,20,.379,40.011.116,60.017-.019,2.317-.016,3.073.487,3.036,2.935-.1,6.529.032,6.538-6.4,6.542q-15.562.009-31.122,0Z" transform="translate(-66.954 -38.661)" fill="#fafafa" fill-rule="evenodd"/>
    <path id="Path_19" data-name="Path 19" d="M610.059,392.217c4.673-2.556,9.212-5.388,13.664-8.367a5.766,5.766,0,0,1,3.327-.82c10.258-.013,20.518-.012,30.775-.146,2.13-.027,2.612.711,2.622,2.729.034,6.581.119,6.6-6.334,6.6Q632.085,392.228,610.059,392.217Z" transform="translate(-80.694 -70.643)" fill="#fafafa" fill-rule="evenodd"/>
    <path id="Path_20" data-name="Path 20" d="M569.021,233.8c-4.657,3.165-9.377,5.7-13.8,8.723a4.638,4.638,0,0,1-2.75.568c-9.63.041-19.263.048-28.893.152-1.627.018-2.387-.261-2.018-2.1a6.77,6.77,0,0,0,.037-3.46c-1.476-4,.8-3.806,3.64-3.793,13.336.063,26.672-.044,40.007-.09C566.5,233.8,567.761,233.8,569.021,233.8Z" transform="translate(-48.331 -16.39)" fill="#fbfbfb" fill-rule="evenodd"/>
    <path id="Path_21" data-name="Path 21" d="M613.474,353.279c-4.883,3.693-9.274,7.681-14.4,8.81-8.092,1.78-16.635,1.193-24.874.278-3.442-.382-5.62-4.357-6.762-7.854-.627-1.918,1.353-1.068,2.079-1.076,9.833-.109,19.667-.126,29.5-.155C603.621,353.267,608.227,353.279,613.474,353.279Z" transform="translate(-65.138 -59.862)" fill="#fafafa" fill-rule="evenodd"/>
    <path id="Path_22" data-name="Path 22" d="M488.018,274.142a56.983,56.983,0,0,0,13.018-8.293,4.113,4.113,0,0,1,2.707-1.471c8.625.013,17.249.008,26.42.008-2.707,3.144-5.07,5.905-7.454,8.649-.887,1.021-2.119.774-3.263.778-8.982.026-17.964.031-26.945.073C491.007,273.893,489.512,274.053,488.018,274.142Z" transform="translate(-36.282 -27.518)" fill="#fafafa" fill-rule="evenodd"/>
    <path id="Path_23" data-name="Path 23" d="M620.863,342.959a9.334,9.334,0,0,1-7.586,3.68c-15.041-.034-30.082.016-45.123.035-.424,0-.847-.01-1.271-.012-1.783-.007-1.971-1.218-2-2.6-.038-1.556.985-1.622,2.125-1.622q8.262,0,16.524-.019c11.334-.02,22.668-.055,34-.045C618.531,342.378,619.621,342.013,620.863,342.959Z" transform="translate(-64.252 -55.878)" fill="#de343e" fill-rule="evenodd"/>
    <path id="Path_24" data-name="Path 24" d="M584.99,225.087a79.541,79.541,0,0,1-20.067,2.4c-13.982-.169-27.969-.033-41.953.013-4.522.015-9.117.554-13.042-2.61.316-.858,1.257-.585,2.021-.586q35.915-.073,71.83-.109a11.186,11.186,0,0,1,1.261.138Q585.014,224.712,584.99,225.087Z" transform="translate(-44.255 -12.897)" fill="#eb343a" fill-rule="evenodd"/>
    <path id="Path_25" data-name="Path 25" d="M650.874,362.472c1.488-1.817,2.81-2.987,3.572-4.449,2.182-4.177,5.426-5.683,10.058-5.025a54.769,54.769,0,0,0,7.609.07c.529,0,1.149-.183,1.572.029,3.264,1.633.881,4.575,1.47,6.854.286,1.1.469,2.574-1.668,2.55C666.124,362.424,658.758,362.472,650.874,362.472Z" transform="translate(-95.547 -59.714)" fill="#fafafa" fill-rule="evenodd"/>
    <path id="Path_26" data-name="Path 26" d="M535.086,392.8H509.508c-.211,0-.507.071-.62-.038-2.316-2.238-.565-5.063-1.055-7.576-.254-1.3.4-1.9,1.784-1.875,3.589.057,7.181.02,10.771.021a4.169,4.169,0,0,1,2.821,1.278C526.755,387.84,530.832,390.229,535.086,392.8Z" transform="translate(-43.428 -70.798)" fill="#fafafa" fill-rule="evenodd"/>
    <path id="Path_27" data-name="Path 27" d="M654.607,273.239c2.315-3.089,4.276-5.664,6.186-8.277a2.754,2.754,0,0,1,2.53-.966c3.7-.012,7.4.089,11.087-.051,1.791-.067,2.041.68,2.093,2.219.244,7.1.289,7.091-6.758,7.076C664.9,273.231,660.046,273.239,654.607,273.239Z" transform="translate(-96.905 -27.359)" fill="#fbfbfb" fill-rule="evenodd"/>
    <path id="Path_28" data-name="Path 28" d="M613.441,314.724q3.683-.015,7.367-.029.416,1.188.829,2.374a5.561,5.561,0,0,1-1.224.282q-24.96.079-49.921.109c-.842,0-2.168.431-2.14-1.092.02-1.072.467-2.077,1.9-2.048,11.964.243,23.939-.635,35.9.409A7.537,7.537,0,0,0,613.441,314.724Z" transform="translate(-65.516 -45.65)" fill="#de343e" fill-rule="evenodd"/>
    <path id="Path_29" data-name="Path 29" d="M548.255,252.562c-2.77,3.631-5.712,5.094-9.861,4.919-7.553-.319-15.129-.091-22.943-.091,1.093-3,2.431-4.545,5.775-4.512C530.073,252.965,538.93,253.294,548.255,252.562Z" transform="translate(-46.265 -23.218)" fill="#de343e" fill-rule="evenodd"/>
    <path id="Path_30" data-name="Path 30" d="M457.858,234.205a46.546,46.546,0,0,0-8.429,8.538c-.733,1.008-9.06,1.5-9.731.611-1.029-1.361-.474-3.056-.513-4.6-.114-4.523-.063-4.536,4.424-4.55S452.587,234.205,457.858,234.205Z" transform="translate(-18.469 -16.536)" fill="#fafafa" fill-rule="evenodd"/>
    <path id="Path_31" data-name="Path 31" d="M613.165,264.534c-1.588,2.506-3.432,4.806-4.356,7.62a2,2,0,0,1-2.166,1.443c-4.508-.041-9.017-.017-13.577-.017Q599.47,262.195,613.165,264.534Z" transform="translate(-74.51 -27.428)" fill="#fafafa" fill-rule="evenodd"/>
    <path id="Path_32" data-name="Path 32" d="M445.877,333.593c-6.579.011-6.474.01-6.554-6.7-.027-2.277.719-3.011,2.864-2.763a28.2,28.2,0,0,0,3.155.021c6.758.017,6.7.018,6.881,6.712.052,1.939-.313,3.037-2.56,2.753A29.573,29.573,0,0,0,445.877,333.593Z" transform="translate(-18.56 -49.246)" fill="#fafafa" fill-rule="evenodd"/>
    <path id="Path_33" data-name="Path 33" d="M445.891,305.032c-7.008.06-6.954.062-6.6-7.2.08-1.631.564-2.27,2.213-2.219,2.847.088,5.7.037,8.55.034.876,0,1.8-.016,1.833,1.178.074,2.425.125,4.853.1,7.279-.011,1.1-.954.91-1.663.919C448.847,305.044,447.368,305.032,445.891,305.032Z" transform="translate(-18.505 -38.885)" fill="#fafafa" fill-rule="evenodd"/>
    <path id="Path_34" data-name="Path 34" d="M445.911,392.909c-6.2.012-6.105.011-6.184-6.37-.028-2.265.447-3.3,2.937-3.085a51.339,51.339,0,0,0,7.276,0c1.978-.112,2.5.7,2.555,2.576C452.686,392.9,452.746,392.9,445.911,392.909Z" transform="translate(-18.708 -70.841)" fill="#fafafa" fill-rule="evenodd"/>
    <path id="Path_35" data-name="Path 35" d="M522.042,295.372c-1.525,2.952-2.861,5.45-4.106,7.992a2.286,2.286,0,0,1-2.475,1.495c-.838-.071-1.688-.02-2.533-.02-5.62,0-5.459,0-5.607-5.659-.078-2.995.753-4.127,3.875-3.873C514.655,295.589,518.153,295.372,522.042,295.372Z" transform="translate(-43.304 -38.761)" fill="#fafafa" fill-rule="evenodd"/>
    <path id="Path_36" data-name="Path 36" d="M445.953,354.064c6.678-.026,6.6-.027,6.522,6.708-.022,1.975-.662,2.556-2.549,2.483-2.627-.1-5.264.067-7.9.061-.877,0-2.127.314-2.209-1.084-.135-2.31-.106-4.629-.1-6.945.006-1.209.955-1.2,1.805-1.216C443.005,354.05,444.48,354.064,445.953,354.064Z" transform="translate(-18.704 -60.154)" fill="#fafafa" fill-rule="evenodd"/>
    <path id="Path_37" data-name="Path 37" d="M595.108,288.245c-3.28,0-6.561.012-9.841-.01-.7,0-1.607.292-1.962-.585-.338-.833.488-1.29.9-1.875a5.489,5.489,0,0,1,5.107-2.522c4.227.149,8.464.021,12.7.029.928,0,2-.258,2.616.708.782,1.225,2.57,2.406,2.152,3.64-.445,1.31-2.43.519-3.731.562-2.642.085-5.29.025-7.935.025Z" transform="translate(-70.929 -34.385)" fill="#de343e" fill-rule="evenodd"/>
    <path id="Path_38" data-name="Path 38" d="M670.182,233.238c3.51,0,6.968-.513,10.2.13,3.984.793.946,4.335,1.69,6.522.352,1.037.779,2.955-1.637,2.8-.946-.06-1.9,0-2.85-.016-1.9-.028-4.157.555-5.591-.278-1.49-.864-.15-3.31-.621-5C671.007,236.092,670.627,234.794,670.182,233.238Z" transform="translate(-102.573 -16.115)" fill="#fafafa" fill-rule="evenodd"/>
    <path id="Path_39" data-name="Path 39" d="M452.686,273.994c-4.417,0-7.894-.04-11.371.018-1.419.024-2.231-.321-2.068-1.945a27.584,27.584,0,0,0-.025-2.854c-.028-4.858-.028-4.791,4.811-4.664,1.408.038,2.126.444,2.423,1.82C447.143,269.552,449.178,271.76,452.686,273.994Z" transform="translate(-18.523 -27.567)" fill="#fafafa" fill-rule="evenodd"/>
    <path id="Path_40" data-name="Path 40" d="M635.1,252.63c-6.814,3.373-12.973,5.536-19.777,4.525C618.853,253.074,624.251,251.735,635.1,252.63Z" transform="translate(-82.611 -23.146)" fill="#de343e" fill-rule="evenodd"/>
    <path id="Path_41" data-name="Path 41" d="M651.649,317.071q-.414-1.186-.829-2.374c8.288-.8,16.585-.434,24.881-.175-.764,2.058-3.493.775-4.4,2.587a4.357,4.357,0,0,1-2.548.035c-2.969-1.73-5.973-1.385-8.991-.146Z" transform="translate(-95.527 -45.653)" fill="#eb343a" fill-rule="evenodd"/>
    <path id="Path_42" data-name="Path 42" d="M507.745,358.474c0-.952.032-1.906-.007-2.857-.051-1.2.135-2.142,1.662-2.021,1.172.094,2.6-.534,2.992,1.415.332,1.651.969,3.238,1.371,4.878.24.981,1.76,2.462.394,2.861-1.9.553-4.36.959-6.069-.345-.727-.555-.338-2.571-.457-3.923Z" transform="translate(-43.419 -59.976)" fill="#fafafa" fill-rule="evenodd"/>
    <path id="Path_43" data-name="Path 43" d="M513.148,376.729c-1.364,0-2.728.016-4.091,0-1.558-.023-1.866-1.025-1.837-2.339a1.688,1.688,0,0,1,1.965-1.876c1.784.014,3.567,0,5.351-.015a3.434,3.434,0,0,1,3.693,3.15c-.026,2.062-2.281.739-3.513,1.074a6.166,6.166,0,0,1-1.568.022Z" transform="translate(-43.269 -66.863)" fill="#de343e" fill-rule="evenodd"/>
    <path id="Path_44" data-name="Path 44" d="M510.578,324.114c2.573-.549,3.316.289,2.4,2.784a17.675,17.675,0,0,0-.782,4.333c-.169,1.737-.995,2.318-2.715,2.187-1.813-.138-1.93-1.2-1.86-2.6a16.93,16.93,0,0,0-.036-3.473C507.193,324.87,507.65,323.341,510.578,324.114Z" transform="translate(-43.359 -49.183)" fill="#fafafa" fill-rule="evenodd"/>
    <path id="Path_45" data-name="Path 45" d="M511.271,318c-.964-.157-1.786-.335-2.615-.416-.992-.1-1.562-.5-1.482-1.58a1.492,1.492,0,0,1,1.6-1.561c1.57-.035,3.144-.069,4.712-.011.758.028,1.992-.468,2.107.663a2.242,2.242,0,0,1-1.674,2.384C513.015,317.723,512.079,317.845,511.271,318Z" transform="translate(-43.25 -45.702)" fill="#de343e" fill-rule="evenodd"/>
    <path id="Path_46" data-name="Path 46" d="M509.586,347.054c-1.483.064-2.453-.16-2.453-1.824,0-1.466.515-2.11,2.027-2.065,1.414.041,2.461.215,2.429,2.036C511.562,346.795,510.8,347.238,509.586,347.054Z" transform="translate(-43.238 -56.189)" fill="#de343e" fill-rule="evenodd"/>
    <path id="Path_47" data-name="Path 47" d="M664.874,318c3.018-1.24,6.022-1.584,8.991.146C670.863,318.387,667.86,318.705,664.874,318Z" transform="translate(-100.642 -46.652)" fill="#de343e" fill-rule="evenodd"/>
    <path id="Path_48" data-name="Path 48" d="M627.934,224.829q.025-.375.051-.749c1.275-1.1,2.589-.354,3.913-.174C630.6,224.461,629.423,225.387,627.934,224.829Z" transform="translate(-87.199 -12.639)" fill="#de343e" fill-rule="evenodd"/>
    <path id="Path_49" data-name="Path 49" d="M635.063,315.021a7.537,7.537,0,0,1-7.3.006Z" transform="translate(-87.138 -45.948)" fill="#eb343a" fill-rule="evenodd"/>
    <path id="Path_50" data-name="Path 50" d="M457.549,315.585c-.895-.086-1.915.306-2.579-.672C456.046,314.305,457.076,313.879,457.549,315.585Z" transform="translate(-24.255 -45.714)" fill="#de343e" fill-rule="evenodd"/>
    <path id="Path_51" data-name="Path 51" d="M454.986,319.184c.5-1.338,1.667-.772,2.591-.9C457.209,320.006,456.017,319.365,454.986,319.184Z" transform="translate(-24.261 -47.13)" fill="#de343e" fill-rule="evenodd"/>
    <path id="Path_52" data-name="Path 52" d="M693.572,292.461a.3.3,0,0,1,0,.4l-.117-.2Z" transform="translate(-111.043 -37.738)" fill="#de343e" fill-rule="evenodd"/>
    <path id="Path_53" data-name="Path 53" d="M438.637,315.168q-.273.009-.546.01C438.267,314.842,438.449,314.867,438.637,315.168Z" transform="translate(-18.113 -45.916)" fill="#de343e" fill-rule="evenodd"/>
    <path id="Path_54" data-name="Path 54" d="M436.624,315.37c-.246.337-.452.275-.63-.063Z" transform="translate(-17.349 -46.052)" fill="#de343e" fill-rule="evenodd"/>
    <path id="Path_55" data-name="Path 55" d="M435.62,314.914l-.614-.651Z" transform="translate(-16.99 -45.672)" fill="#de343e" fill-rule="evenodd"/>
    <path id="Path_56" data-name="Path 56" d="M435.051,320.182c.052-.313.16-.538.536-.348C435.408,319.949,435.23,320.066,435.051,320.182Z" transform="translate(-17.006 -47.674)" fill="#de343e" fill-rule="evenodd"/>
    <path id="Path_57" data-name="Path 57" d="M519.022,422.459c-25.225,0-50.451-.055-75.675.072-3,.016-3.714-.859-3.6-3.72.233-5.791.074-5.782,5.905-5.8q70.591-.195,141.183-.4c3.073-.01,6.15-.008,9.215-.175,1.988-.108,2.486.669,2.511,2.576.09,6.853.162,6.881-6.724,6.884q-36.41.02-72.817.005Z" transform="translate(-18.712 -81.394)" fill="#fafafa" fill-rule="evenodd"/>
  </g>
</svg>
