<svg xmlns="http://www.w3.org/2000/svg" width="390" height="306"><defs><clipPath id="a"><path data-name="Rectangle 70" transform="translate(0 122)" fill="#fff" stroke="#707070" d="M0 0h390v306H0z"/></clipPath></defs><g transform="translate(0 -122)" clip-path="url(#a)"><g data-name="img_dashboard"><rect data-name="Rectangle 12" width="314" height="202" rx="20" transform="translate(146 122)" fill="#ffe1e1"/><rect data-name="Rectangle 36" width="297" height="180" rx="13" transform="translate(159 133)" fill="#f6bcbc"/><g data-name="Group 1255"><g data-name="Big Leaf Plant"><g data-name="Big Ass Leaf"><path d="M18.147 281.35a10.074 10.074 0 0 1 5.114.539c3.373 1.435 4.332 5.421 4.286 8.661-.05 3.487-.79 7.3 1.861 10.1 1.219 1.292 2.734 2.28 3.931 3.6a17 17 0 0 1 3.025 4.741c1.364 3.172 2.033 6.9.786 10.231-1.1 2.93-3.861 5.574-3.264 8.906.623 3.475 4.127 6.132 6.317 8.721 2.479 2.93 4.762 6.674 5.137 10.516a13.8 13.8 0 0 1-3.7 10.189c-4.914 5.561-12.3 8.288-19.749 8.271-3.162-.007-6.743-.15-9.472-1.85a5.219 5.219 0 0 1-1.79-1.934 6.3 6.3 0 0 0-1.73-1.733 10.274 10.274 0 0 1-3.3-4.4c-2.7-6.69-.543-14.967 3.241-20.908.9-1.408 1.63-2.762 1.195-4.44a17.124 17.124 0 0 0-2.559-4.836 38.9 38.9 0 0 1-2.855-4.518 10.247 10.247 0 0 1-.883-5.294 18.009 18.009 0 0 1 3.878-9.447c2.039-2.684 4.434-5.251 4.439-8.768.007-3.727-2.485-7.047-1.423-10.831a7.22 7.22 0 0 1 2.744-4.116 11.188 11.188 0 0 1 4.771-1.4z" fill="#dde3e9"/><path data-name="middle thing" d="M17.032 287.31a.859.859 0 0 1 1.093-.669c.615.172.6.747.587 1.259a16.921 16.921 0 0 0 .556 4.632 82.374 82.374 0 0 0 3.392 9.152 16.659 16.659 0 0 1 1.016 9.42c-.636 3.041-1.636 6-2.287 9.048-.574 2.684-1.185 5.513-.311 8.19.841 2.577 2.7 4.675 4.04 7a33.019 33.019 0 0 1 4.166 15.668 29.3 29.3 0 0 1-.585 7.64c-.341 1.443-.8 3.393-2.036 4.39a1.412 1.412 0 0 1-2.025-.062c-.451-.638-.055-1.626.088-2.306a34.959 34.959 0 0 0 .6-8.943 32.288 32.288 0 0 0-1.4-8.552 28.943 28.943 0 0 0-3.643-7.117c-1.544-2.285-3.147-4.578-3.783-7.289a17.164 17.164 0 0 1 .581-8.256c.743-2.857 1.717-5.632 2.723-8.411a14.758 14.758 0 0 0 .787-8.105c-1.069-5.6-3.932-10.857-3.559-16.689z" fill="#c5cfd6"/></g><g data-name="Big Ass Leaf"><path data-name="leaf" d="M63.193 288.148a12.8 12.8 0 0 1 5.713 3.3c3.2 3.449 2.218 8.661.452 12.469-1.9 4.1-4.783 8.217-3.159 12.918.747 2.161 2 4.119 2.71 6.3a21.96 21.96 0 0 1 1.042 7.18c-.077 4.461-1.264 9.221-4.486 12.508-2.837 2.894-7.475 4.584-8.536 8.834-1.107 4.434 1.6 9.4 2.8 13.6 1.359 4.754 2.058 10.37.467 15.108-1.524 4.541-5.372 8.111-9.728 10.123-8.7 4.02-18.808 3.4-27.535-.493-3.704-1.657-7.828-3.689-10.131-7.118a6.709 6.709 0 0 1-1.077-3.218 8.1 8.1 0 0 0-1.115-2.953 13.246 13.246 0 0 1-1.54-6.922c.367-9.314 7.275-17.978 14.853-23.036 1.8-1.2 3.372-2.418 3.748-4.629a22.177 22.177 0 0 0-.446-7.051 50.272 50.272 0 0 1-.96-6.825 13.369 13.369 0 0 1 1.763-6.72 23.517 23.517 0 0 1 9.542-9.155c3.81-2.113 7.976-3.9 9.841-8.06 1.977-4.4.807-9.621 4.054-13.55a9.394 9.394 0 0 1 5.394-3.443 14.287 14.287 0 0 1 6.334.833z" fill="#dde3e9"/><path data-name="middle thing" d="M58.881 295.432a1.1 1.1 0 0 1 1.629-.221c.629.526.314 1.2.027 1.8a22.168 22.168 0 0 0-1.775 5.776c-.744 4.173-.576 8.4-.827 12.616a21.815 21.815 0 0 1-3.746 11.688c-2.337 3.268-5.057 6.251-7.413 9.516-2.077 2.877-4.273 5.908-4.653 9.536-.366 3.492.71 6.952 1.056 10.411a43.261 43.261 0 0 1-3.335 20.74 38.288 38.288 0 0 1-4.686 8.741c-1.155 1.53-2.712 3.6-4.68 4.131a1.8 1.8 0 0 1-2.335-1.136c-.193-.992.787-1.955 1.31-2.685a45.688 45.688 0 0 0 5.38-10.278 42.31 42.31 0 0 0 2.846-10.86 37.852 37.852 0 0 0-.533-10.338c-.6-3.517-1.276-7.072-.6-10.617.685-3.6 2.767-6.642 5-9.472 2.365-2.994 4.957-5.769 7.589-8.533a19.271 19.271 0 0 0 5.165-9.186c1.686-7.193 1.09-14.918 4.581-21.629z" fill="#c5cfd6"/></g><g data-name="Big Ass Leaf"><path data-name="leaf" d="M-2.075 314.603a11.334 11.334 0 0 1 8.724 4.5c2.49 3.091 2.992 6.866 4 10.55a9.418 9.418 0 0 0 2.884 4.9c1.379 1.133 3.13 1.36 4.78 1.913a11.155 11.155 0 0 1 7.015 7.022c1.283 3.966-.076 7.965.158 11.984.215 3.691 3.854 5.994 6.782 7.763 2.887 1.745 5.488 3.378 6.358 6.777.922 3.6 1.232 7.629-.046 11.19-2.126 5.93-8.35 8.541-14.363 8.945-5.457.367-12.319-.209-16.418-4.171a11.659 11.659 0 0 1-3.23-8.984 27.349 27.349 0 0 1 1-6.065 27.364 27.364 0 0 0 1.019-4.255c.381-3.862-3.189-4.6-6.227-5.664a14.818 14.818 0 0 1-8.441-7.438 14.167 14.167 0 0 1-1.435-10.644 12.426 12.426 0 0 1 2.826-4.973c.58-.63 1.4-1.156 1.922-1.819a2.454 2.454 0 0 0 .214-2.145c-.779-3.347-3.206-6.118-4.074-9.459-.784-3.015-.32-6.768 2.437-8.714a7.2 7.2 0 0 1 4.115-1.213z" fill="#c5cfd6"/><path data-name="middle thing" d="M2.709 323.323c3.721 3.963 4.732 9.341 5.029 14.553.166 2.923-.007 6.005.852 8.84.731 2.425 2.457 4.282 4.231 6.035 3.574 3.529 7.56 7.116 8.6 12.223.613 3 .2 6.093 1.047 9.057a24.912 24.912 0 0 0 3.778 7.616c1.329 1.832 3.06 3.235 4.512 4.943.443.521 1.078 1.289.9 2.025-.214.862-1.312 1.135-2.091 1-1.816-.316-3.345-2.05-4.532-3.311a28.515 28.515 0 0 1-4.414-6.051 25.437 25.437 0 0 1-2.861-7.863c-.475-2.875-.239-5.871-1.324-8.63-1.826-4.643-6.257-7.382-9.46-11-3.987-4.51-3.392-10.119-2.983-15.668.228-3.051.448-6.491-1.093-9.273-.588-1.063-1.898-2.053-2.151-3.261-.228-1.106 1.032-2.224 1.96-1.235z" fill="#afb9c5"/></g><path d="M6.676 388.456c0 22.667 3.7 34.544 23.228 34.544s23.228-11.877 23.228-34.544z" fill="#89c5cc"/></g><g data-name="Group 10"><g data-name="Head/Front"><path data-name="Head" d="M120.023 243.536l-1.107-21.99a15.129 15.129 0 0 1-6.714-9.461c-2.286-11.774 14.504-13.552 19.199-8.565s8.29 19.881 4.52 22.009c-1.504.848-5.216.753-9.282-.41L133 240.056z" fill="#b28b67"/><path d="M126.555 224.462c-1.574-2.396-3.937-9.874-4.618-12.088a3.4 3.4 0 0 0-.392.08 3.352 3.352 0 0 0-.778 6.164 50.982 50.982 0 0 1-1.67 3.99c-4.205-1.199-8.595-6.829-6.69-13.878a8.289 8.289 0 0 1 4.383-6.885 9.76 9.76 0 0 1 6.055-2.111c3.725-.664 7.274-.427 8.372-.016.923 3.442.528 4.642-5.203 6.082a10.886 10.886 0 0 0-2.616 4.646c.038.11 3.54 10.16 6.721 9.307 3.196-.857 5.365-3.613 6.769-3.99 1.022-.274 1.136 1.066.711 2.191-.35.932-2.873 2.416-2.548 3.627.184.684.87.5 1.466.338.46-.123.87-.233.953.078.318 1.188 1.296 3.322-.77 3.876-2.087.566-8.286 1.412-10.145-1.411z" fill="#191847"/></g><g data-name="Bottom/Skinny Jeans 1"><path d="M126.22 288.317l27.473 69.424 18.427 58.693h7.276l-28.17-128.117z" fill="#997659"/><path data-name="Leg" d="M120.685 288.317c-.293 24.4-4.559 57.242-5.241 58.762s-47.059 38.678-47.059 38.678l5.011 5.354s54.725-31.857 57.257-36.106 10.777-43.349 17.396-66.688z" fill="#b28b67"/><path d="M69.947 383.848a1.034 1.034 0 0 0-1.388-.565l-3.293 1.475a33.2 33.2 0 0 0-2.826 2.98l18.736 22.329s3.607-1.544 2.261-3.613-2.2-3.463-2.2-3.463l-4.08-14.26a.517.517 0 0 0-.652-.349l-2.179.69a11.713 11.713 0 0 1-3.178-2.142z" fill="#e4e4e4" data-name="Left Shoe"/><g data-name="Right Shoe"><path data-name="shoe" d="M170.701 412.959a1.12 1.12 0 0 0-1.436.754l-1.064 3.758a35.847 35.847 0 0 0 .5 4.412h31.57s1.235-4.063-1.416-4.383-4.405-.585-4.405-.585l-14.674-6.534a.56.56 0 0 0-.745.3l-.943 2.281a12.7 12.7 0 0 1-3.987 1.144z" fill="#e4e4e4"/></g><path d="M144.691 410.388l34.594-3.749-25.638-118.322h-30.985z" fill="#69a1ac"/><path data-name="Pant" d="M75.541 377.117l22.692 26.817s35.851-39.092 41.803-51.017 10.7-64.6 10.7-64.6h-34.884s-2.594 46.343-3.5 48.5-36.811 40.3-36.811 40.3z" fill="#89c5cc"/></g><g data-name="Body/Long Sleeve 1"><path d="M91.899 338.525c-.682-.27-1.608-1.578-.177-2.98 3.567-3.493 8.554-9.387 9.061-11.126 1.038-3.558.906-36.422.906-36.422l11.528-1.994s-4.595 36.278-5.077 38.533c-.724 3.378 2.831 7.713 4.442 10.093-1.676 1.134-2.705.246-3.813-.628-1.18-.933-2.46-1.847-4.703-.279-2.875 2.008-5.056 4.774-8.143 5.32a7.28 7.28 0 0 1-4.024-.517zm93.732-48.491l-18.69-4.135 2.192-10.281 19.865 9.787a48.103 48.103 0 0 1 12.802 2.685c.879.556 2.042 1.784-1.14 2.099s-6.506.784-6.75 1.929 1.879 2.085 1.26 3.68a.422.422 0 0 1-.346.273q-1.547.269-9.193-6.037z" fill="#b28b67"/><path data-name="Coat Back" d="M125.903 233.937l4.622-1.659c20.381 12.127 32.825 40.145 57.247 51.836l-4.076 7.38c-38.427 1.998-54.067-32.096-57.793-57.557z" fill="#e87613"/><path d="M115.687 297.427l42.184-7.452c1.927-.34 1.073-3.055.547-4.408-6.075-15.616-21.711-30.845-25.78-53.882l-12.504.245c-7.21 17.938-7.175 38.45-4.447 65.497z" fill="#dde3e9"/><path data-name="Coat Front" d="M100.475 323.955c-6.524-31.248 1.121-57.53 8.517-73.87a6.502 6.502 0 0 1-6.069-2.391c-5.863-7.228-5.037-11.924-.54-14.216s9.262-.052 16.835-1.39a6.002 6.002 0 0 1 .914-.095l4.08-.484s26.192 52.575 22.117 72.421l-33.343 5.89a107.194 107.194 0 0 1-3.465 12.537z" fill="#ff9b21"/><path d="M125.449 307.623l-12.463 2.201c1.317-5.884 2.644-13.097 3.94-21.44 2.832 9.499 5.699 15.972 8.521 19.238z" fill="rgba(0,0,0,0.1)"/></g></g><rect data-name="Rectangle 37" width="117" height="6" rx="3" transform="translate(93 422)" fill="#ffe1e1"/></g></g></g></svg>